grf
version=1
nRows=42
nColumns=19
inDegrees=yes
endheader
time	ground_force_1_vx	ground_force_1_vy	ground_force_1_vz	ground_force_1_px	ground_force_1_py	ground_force_1_pz	ground_moment_1_mx	ground_moment_1_my	ground_moment_1_mz	ground_force_2_vx	ground_force_2_vy	ground_force_2_vz	ground_force_2_px	ground_force_2_py	ground_force_2_pz	ground_moment_2_mx	ground_moment_2_my	ground_moment_2_mz
0.000000	-9.161022	1338.348877	-426.140320	0.213671	0.000000	-0.772958	0.000000	21.828920	0.000000	10.639627	1512.217041	481.287048	0.224450	0.000000	-1.582923	0.000000	-10.939527	-0.000000
0.001000	-7.752079	1341.552124	-428.028748	0.213974	0.000000	-0.773232	0.000000	21.532062	0.000000	10.760414	1509.995117	481.367310	0.224514	0.000000	-1.583392	0.000000	-10.866526	-0.000000
0.002000	-8.919554	1342.031372	-430.120605	0.214256	0.000000	-0.772237	-0.000000	21.229469	0.000000	9.955348	1503.458374	480.843719	0.224811	0.000000	-1.583323	0.000000	-10.748277	-0.000000
0.003000	-9.118876	1340.924683	-430.885406	0.213587	0.000000	-0.772262	0.000000	21.390777	0.000000	9.954244	1503.609619	480.081512	0.224975	0.000000	-1.582684	0.000000	-10.992607	-0.000000
0.004000	-8.797678	1345.712891	-430.764679	0.214149	0.000000	-0.772261	0.000000	21.204679	0.000000	11.039401	1512.237549	480.643127	0.225323	0.000000	-1.581674	0.000000	-10.781608	-0.000000
0.005000	-9.280996	1340.104858	-432.657837	0.214378	0.000000	-0.771735	0.000000	21.070317	0.000000	10.276850	1509.040283	481.449615	0.224920	0.000000	-1.583978	0.000000	-10.948315	-0.000000
0.006000	-8.916510	1336.433105	-432.779266	0.214158	0.000000	-0.770924	0.000000	21.116665	0.000000	9.673878	1505.049316	480.080261	0.224649	0.000000	-1.583239	0.000000	-10.892586	-0.000000
0.007000	-9.522083	1342.687866	-434.188080	0.213540	0.000000	-0.771739	0.000000	21.364763	0.000000	9.713497	1497.871826	479.398071	0.224270	0.000000	-1.583543	0.000000	-11.288394	-0.000000
0.008000	-8.635557	1343.957764	-434.953125	0.214102	0.000000	-0.772145	0.000000	21.089394	0.000000	9.190589	1486.233521	479.558411	0.224146	0.000000	-1.583927	0.000000	-11.301379	-0.000000
0.009000	-9.441216	1334.370239	-435.475708	0.213485	0.000000	-0.772299	0.000000	21.295997	0.000000	9.511126	1507.286011	479.278015	0.224963	0.000000	-1.583170	0.000000	-11.165486	-0.000000
0.010000	-6.766043	1359.934326	-435.879028	0.215100	0.000000	-0.772223	0.000000	19.934403	0.000000	8.989184	1492.009766	480.284119	0.225943	0.000000	-1.585233	0.000000	-10.620208	-0.000000
0.011000	-8.671999	1341.252319	-437.088623	0.213744	0.000000	-0.773996	0.000000	21.060183	0.000000	9.270242	1511.405273	479.117371	0.224408	0.000000	-1.581993	0.000000	-11.416510	-0.000000
0.012000	-9.077871	1341.871582	-437.289001	0.214151	0.000000	-0.771642	0.000000	20.981580	0.000000	7.863305	1506.815186	478.273376	0.225490	0.000000	-1.582818	0.000000	-10.875227	-0.000000
0.013000	-10.051731	1341.882812	-438.859680	0.213943	0.000000	-0.770601	0.000000	21.337999	0.000000	8.908430	1501.542725	477.871033	0.224962	0.000000	-1.583754	0.000000	-11.172637	-0.000000
0.014000	-8.996622	1340.746094	-438.417114	0.214209	0.000000	-0.771440	0.000000	20.923736	0.000000	7.863029	1503.308838	478.192932	0.225803	0.000000	-1.584197	-0.000000	-10.748992	-0.000000
0.015000	-9.078249	1351.311523	-440.389221	0.214547	0.000000	-0.771769	0.000000	20.716676	0.000000	8.544688	1503.143311	477.589691	0.225382	0.000000	-1.583652	0.000000	-11.202759	-0.000000
0.016000	-8.953335	1346.035400	-440.551270	0.214138	0.000000	-0.770933	0.000000	20.768202	0.000000	7.379189	1497.233154	477.027588	0.225303	0.000000	-1.586755	-0.000000	-11.214864	-0.000000
0.017000	-8.829935	1353.085083	-441.435852	0.214067	0.000000	-0.771645	0.000000	20.605913	0.000000	7.418946	1496.449463	476.626068	0.225740	0.000000	-1.584137	0.000000	-11.147297	-0.000000
0.018000	-9.721786	1343.957397	-441.961029	0.213690	0.000000	-0.769588	-0.000000	21.078721	0.000000	7.177234	1492.642822	477.388702	0.226566	0.000000	-1.585555	0.000000	-10.641104	-0.000000
0.019000	-8.982166	1333.578003	-442.565613	0.213062	0.000000	-0.770283	0.000000	20.743204	0.000000	7.017380	1495.831055	477.230286	0.226402	0.000000	-1.584611	0.000000	-10.833586	-0.000000
0.020000	-9.716843	1348.585571	-444.255615	0.214909	0.000000	-0.770017	0.000000	20.228342	0.000000	5.087399	1489.433594	475.660645	0.226120	0.000000	-1.583656	0.000000	-10.841370	-0.000000
0.021000	-9.920345	1356.420288	-444.298096	0.214885	0.000000	-0.770628	0.000000	20.411482	0.000000	6.211348	1494.540649	475.822327	0.225863	0.000000	-1.583476	0.000000	-11.288162	-0.000000
0.022000	-10.002357	1350.951294	-445.345917	0.215372	0.000000	-0.771770	-0.000000	20.248227	0.000000	8.790954	1485.923096	475.260223	0.226817	0.000000	-1.583647	0.000000	-10.261196	-0.000000
0.023000	-9.036102	1353.234131	-443.657318	0.214243	0.000000	-0.771718	0.000000	20.943873	0.000000	5.328008	1502.994385	475.259796	0.226771	0.000000	-1.584218	0.000000	-10.736587	-0.000000
0.024000	-10.727144	1360.271729	-445.346161	0.214447	0.000000	-0.771886	0.000000	20.647261	0.000000	4.562146	1488.006836	475.540771	0.226732	0.000000	-1.584555	0.000000	-10.905009	-0.000000
0.025000	-11.010378	1359.305054	-446.512573	0.214786	0.000000	-0.771681	0.000000	20.459276	0.000000	4.683209	1487.053345	475.380493	0.226702	0.000000	-1.583915	0.000000	-10.926757	-0.000000
0.026000	-11.450787	1357.558105	-447.761200	0.214181	0.000000	-0.771180	0.000000	20.592746	0.000000	4.521976	1497.896851	474.857758	0.226887	0.000000	-1.584960	0.000000	-10.895640	-0.000000
0.027000	-11.613289	1345.828369	-449.621704	0.215487	0.000000	-0.770312	0.000000	20.356026	0.000000	3.795871	1493.432129	475.661255	0.226739	0.000000	-1.584487	0.000000	-11.135396	-0.000000
0.028000	-9.132114	1370.330566	-448.244354	0.215137	0.000000	-0.771140	0.000000	19.210975	0.000000	3.957932	1489.125732	475.019653	0.226962	0.000000	-1.584673	0.000000	-11.070276	-0.000000
0.029000	-12.015354	1366.984619	-448.888885	0.214330	0.000000	-0.772975	0.000000	20.499156	0.000000	3.757770	1489.131348	474.014099	0.227264	0.000000	-1.584148	0.000000	-10.824202	-0.000000
0.030000	-11.936007	1366.996704	-449.733765	0.214640	0.000000	-0.771082	0.000000	20.380019	0.000000	3.837698	1480.679077	474.174194	0.227176	0.000000	-1.584702	0.000000	-10.851150	-0.000000
0.031000	-12.092422	1359.797852	-450.298401	0.214276	0.000000	-0.771091	0.000000	20.361686	0.000000	3.274481	1494.205078	473.532898	0.226313	0.000000	-1.582797	0.000000	-11.497064	-0.000000
0.032000	-12.293264	1376.974365	-451.185791	0.213290	0.000000	-0.770949	0.000000	20.817808	0.000000	-0.392490	1482.751465	474.054474	0.227143	0.000000	-1.584982	0.000000	-11.814834	-0.000000
0.033000	-13.223837	1371.317139	-451.948944	0.214310	0.000000	-0.772447	0.000000	20.398905	0.000000	5.724471	1481.481934	474.256531	0.227675	0.000000	-1.584858	0.000000	-11.185845	-0.000000
0.034000	-13.669191	1384.901245	-453.399780	0.215164	0.000000	-0.772905	0.000000	20.104827	0.000000	2.389626	1477.974365	474.094940	0.227476	0.000000	-1.585448	0.000000	-10.845397	-0.000000
0.035000	-14.991562	1383.508545	-455.891205	0.212871	0.000000	-0.773744	0.000000	20.535606	0.000000	0.541367	1496.642090	473.452881	0.228520	0.000000	-1.584288	0.000000	-10.294383	-0.000000
0.036000	-14.188190	1373.890137	-451.593994	0.214220	0.000000	-0.770798	0.000000	20.666797	0.000000	2.147775	1482.112915	473.612915	0.227495	0.000000	-1.585024	0.000000	-10.962712	-0.000000
0.037000	-14.351831	1376.612061	-455.089539	0.214060	0.000000	-0.771285	0.000000	20.417289	0.000000	1.505046	1470.627441	472.607849	0.227219	0.000000	-1.587170	0.000000	-11.054982	-0.000000
0.038000	-13.295958	1375.175293	-455.450806	0.214125	0.000000	-0.770653	0.000000	19.985716	0.000000	1.343812	1481.000000	473.251160	0.227451	0.000000	-1.585364	-0.000000	-10.963674	-0.000000
0.039000	-14.311586	1380.447876	-456.379761	0.214411	0.000000	-0.771001	0.000000	20.294037	0.000000	1.584145	1477.498047	472.568207	0.228120	0.000000	-1.584849	-0.000000	-10.842858	-0.000000
0.040000	-14.958164	1389.565796	-456.781158	0.214417	0.000000	-0.772431	-0.000000	20.286959	0.000000	0.941416	1473.674316	473.452576	0.228327	0.000000	-1.584728	-0.000000	-10.604117	-0.000000
0.041000	-15.398954	1385.256470	-457.384125	0.214072	0.000000	-0.771738	-0.000000	20.289111	0.000000	0.941278	1477.174927	472.890015	0.228259	0.000000	-1.586753	0.000000	-10.704946	-0.000000
